<svg xmlns="http://www.w3.org/2000/svg" width="1280" height="420" viewBox="0 0 1280 420">
<style>
text{font-family:'JetBrains Mono','SF Mono',ui-monospace,Menlo,Consolas,monospace}
.ar{font-family:'Noto Kufi Arabic','Geeza Pro','Segoe UI',Tahoma,sans-serif}
.em{font-family:'Apple Color Emoji','Segoe UI Emoji','Noto Color Emoji',sans-serif}
@keyframes fade{from{opacity:0;transform:translateY(6px)}to{opacity:1;transform:none}}
.in{opacity:0;animation:fade .6s cubic-bezier(.2,.7,.2,1) forwards}
@keyframes pulse{0%,100%{opacity:1}50%{opacity:.2}}
.pulse{animation:pulse 1.8s ease-in-out infinite}
@keyframes blink{0%,49%{opacity:1}50%,100%{opacity:0}}
.blink{animation:blink 1s step-end infinite}
@keyframes reveal{to{clip-path:inset(0 0 0 0)}}
.rv{clip-path:inset(0 100% 0 0);animation:reveal .14s linear forwards}
@keyframes sweep{from{transform:translateY(-40px)}to{transform:translateY(var(--h))}}
.beam{animation:sweep 5s linear infinite}
@keyframes dash{to{stroke-dashoffset:0}}

.spin{transform-box:view-box;transform-origin:170px 240px;animation:spin 22s linear infinite}
.spin.rev{animation-duration:9s;animation-direction:reverse}
@keyframes spin{to{transform:rotate(360deg)}}
.draw{stroke-dasharray:468;stroke-dashoffset:468;animation:dash 1.8s .2s cubic-bezier(.6,0,.2,1) forwards}
@keyframes jit{0%,90%,100%{transform:none}92%{transform:translate(-4px,1px)}94%{transform:translate(4px,-1px)}96%{transform:translate(-2px,0)}}
.jit{animation:jit 4s steps(1) infinite}.jit.b{animation-delay:.05s}
.type{clip-path:inset(0 100% 0 0);animation:reveal 2.4s steps(26) 1.6s forwards}
@keyframes rise{from{transform:translateY(70px)}to{transform:none}}
.sun{animation:rise 4s cubic-bezier(.2,.7,.2,1) forwards}
@keyframes fly{from{transform:translateX(-40px)}to{transform:translateX(260px)}}
.fly{animation:fly 11s linear infinite}
@keyframes steam{0%{opacity:0;transform:translateY(8px)}35%{opacity:.7}100%{opacity:0;transform:translateY(-18px)}}
.steam{opacity:0;animation:steam 3s ease-out infinite}
@keyframes code{0%{transform:scaleX(0)}12%,82%{transform:scaleX(1);opacity:1}100%{transform:scaleX(1);opacity:0}}
.code{transform-box:fill-box;transform-origin:left;transform:scaleX(0);animation:code 9s ease-out infinite}
@keyframes bob{0%,100%{transform:none}50%{transform:translateY(2px)}}
.bob{animation:bob 2.6s ease-in-out infinite}
@keyframes glow{0%,100%{opacity:.55}50%{opacity:.85}}
.glow{animation:glow 3s ease-in-out infinite}@media (prefers-reduced-motion:reduce){*{animation:none!important}.in{opacity:1}.rv{clip-path:none}}</style>
<defs>
<pattern id="scan" width="4" height="4" patternUnits="userSpaceOnUse"><rect width="4" height="1" fill="#ffffff" opacity=".025"/></pattern>
<linearGradient id="beam" x1="0" y1="0" x2="0" y2="1"><stop offset="0" stop-color="#38e8ff" stop-opacity="0"/><stop offset="1" stop-color="#38e8ff" stop-opacity=".09"/></linearGradient>
<clipPath id="pc"><path d="M16 .5H1279.5V404L1264 419.5H.5V16Z"/></clipPath>
</defs>
<path d="M16 .5H1279.5V404L1264 419.5H.5V16Z" fill="#080d18" stroke="#16243a"/>
<g clip-path="url(#pc)"><rect width="1280" height="420" fill="url(#scan)"/>
<rect class="beam" style="--h:420px" width="1280" height="40" fill="url(#beam)"/></g>
<path d="M.5 34V16L16 .5H34 M1279.5 386V404L1264 419.5H1246" fill="none" stroke="#38e8ff" stroke-width="1.5"/><text x="22" y="30" font-size="11" letter-spacing="2.5" fill="#5d7689"><tspan fill="#38e8ff">◢ </tspan>STUDIO  //  morning shift</text><circle class="pulse" cx="1252" cy="26" r="3.5" fill="#7dffb2"/><text x="1240" y="30" font-size="11" letter-spacing="2.5" fill="#5d7689" text-anchor="end">COFFEE ONLINE</text><line x1="22" y1="44" x2="1258" y2="44" stroke="#16243a"/><defs>
<linearGradient id="zcg" x1="0" y1="0" x2="1" y2="1"><stop offset="0" stop-color="#38e8ff"/><stop offset="1" stop-color="#ffb547"/></linearGradient>
<linearGradient id="sheen" gradientUnits="userSpaceOnUse" x1="200" y1="0" x2="420" y2="0">
<stop offset="0" stop-color="#ffffff"/><stop offset=".45" stop-color="#ffffff"/><stop offset=".5" stop-color="#38e8ff"/><stop offset=".55" stop-color="#ffffff"/><stop offset="1" stop-color="#ffffff"/>
<animateTransform attributeName="gradientTransform" type="translate" values="-260 0;460 0" dur="4.5s" repeatCount="indefinite"/></linearGradient>
<linearGradient id="sky" x1="0" y1="0" x2="0" y2="1"><stop offset="0" stop-color="#132a57"/><stop offset=".55" stop-color="#c8577a"/><stop offset="1" stop-color="#ffb547"/></linearGradient>
<radialGradient id="sunglow"><stop offset="0" stop-color="#ffd98a" stop-opacity=".8"/><stop offset="1" stop-color="#ffd98a" stop-opacity="0"/></radialGradient>
<linearGradient id="screen" x1="0" y1="0" x2="0" y2="1"><stop offset="0" stop-color="#38e8ff" stop-opacity=".12"/><stop offset="1" stop-color="#38e8ff" stop-opacity=".02"/></linearGradient>
<radialGradient id="halo" cx=".5" cy=".5" r=".5"><stop offset="0" stop-color="#38e8ff" stop-opacity=".18"/><stop offset="1" stop-color="#38e8ff" stop-opacity="0"/></radialGradient>
</defs><g clip-path="url(#pc)"><ellipse class="glow" cx="1025" cy="220" rx="220" ry="170" fill="url(#halo)"/>
<polygon points="660,78 860,78 1000,420 760,420" fill="#ffb547" opacity=".04"/>
<clipPath id="win"><rect x="660" y="78" width="200" height="176"/></clipPath>
<g clip-path="url(#win)"><rect x="660" y="78" width="200" height="176" fill="url(#sky)"/>
<g class="sun"><circle cx="770" cy="210" r="60" fill="url(#sunglow)"/><circle cx="770" cy="210" r="24" fill="#ffd98a"/></g>
<path class="fly" style="animation-delay:0s" d="M660 148q5 -5 9 0q4 -5 9 0" fill="none" stroke="#04060c" stroke-width="1.6"/><path class="fly" style="animation-delay:-4s" d="M674 136q5 -5 9 0q4 -5 9 0" fill="none" stroke="#04060c" stroke-width="1.6"/><path class="fly" style="animation-delay:-7s" d="M650 166q5 -5 9 0q4 -5 9 0" fill="none" stroke="#04060c" stroke-width="1.6"/><path d="M660 254V228h22v-24h18v30h14v-44h26v38h16v-18h20v28h22v-36h18v22h20v-12h24V254Z" fill="#0a1222"/></g>
<rect x="660" y="78" width="200" height="176" fill="none" stroke="#22324d" stroke-width="6"/>
<path d="M760.0 78V254M660 166.0H860" stroke="#22324d" stroke-width="4"/>
<rect x="650" y="254" width="220" height="8" fill="#22324d"/>
<rect x="883" y="97" width="284" height="174" rx="6" fill="#111a2b" stroke="#22324d"/>
<rect x="890" y="104" width="270" height="160" fill="#06101d"/>
<rect class="glow" x="890" y="104" width="270" height="160" fill="url(#screen)"/><rect class="code" style="animation-delay:0.40s" x="908" y="124" width="120" height="6" rx="3" fill="#38e8ff" opacity=".85"/><rect class="code" style="animation-delay:0.95s" x="924" y="140" width="170" height="6" rx="3" fill="#cfe6f0" opacity=".85"/><rect class="code" style="animation-delay:1.50s" x="940" y="156" width="140" height="6" rx="3" fill="#cfe6f0" opacity=".85"/><rect class="code" style="animation-delay:2.05s" x="924" y="172" width="90" height="6" rx="3" fill="#ffb547" opacity=".85"/><rect class="code" style="animation-delay:2.60s" x="940" y="188" width="190" height="6" rx="3" fill="#cfe6f0" opacity=".85"/><rect class="code" style="animation-delay:3.15s" x="940" y="204" width="110" height="6" rx="3" fill="#7dffb2" opacity=".85"/><rect class="code" style="animation-delay:3.70s" x="924" y="220" width="150" height="6" rx="3" fill="#cfe6f0" opacity=".85"/><rect class="code" style="animation-delay:4.25s" x="908" y="236" width="60" height="6" rx="3" fill="#38e8ff" opacity=".85"/>
<rect class="blink" x="1100" y="236" width="8" height="10" fill="#38e8ff"/>
<rect x="1015.0" y="271" width="20" height="34" fill="#1a2639"/>
<ellipse cx="1025.0" cy="306" rx="44" ry="5" fill="#1a2639"/>
<rect x="630" y="310" width="610" height="10" fill="#1d2b42"/><rect x="640" y="320" width="590" height="100" fill="#0c1424"/>
<path d="M676 288c-14 -10 -22 -30 -12 -44c6 14 12 26 12 44zM680 288c6 -18 22 -30 34 -30c-6 16 -18 26 -34 30zM678 288c0 -20 4 -38 14 -50c4 18 0 36 -14 50z" fill="#7dffb2" opacity=".6"/>
<path d="M664 286h30l-4 24h-22z" fill="#2a3b55"/>
<path class="steam" style="animation-delay:0s" d="M1187 272c-6 -8 6 -12 0 -20c-6 -8 6 -12 0 -20" fill="none" stroke="#ffffff" stroke-width="2.4" stroke-linecap="round"/><path class="steam" style="animation-delay:1s" d="M1197 272c-6 -8 6 -12 0 -20c-6 -8 6 -12 0 -20" fill="none" stroke="#ffffff" stroke-width="2.4" stroke-linecap="round"/><path class="steam" style="animation-delay:2s" d="M1207 272c-6 -8 6 -12 0 -20c-6 -8 6 -12 0 -20" fill="none" stroke="#ffffff" stroke-width="2.4" stroke-linecap="round"/>
<path d="M1216 284c14 0 14 18 0 18" fill="none" stroke="#e8eef5" stroke-width="4"/>
<path d="M1178 276h38v26a8 8 0 0 1 -8 8h-22a8 8 0 0 1 -8 -8z" fill="#e8eef5"/>
<rect x="1178" y="276" width="38" height="4" fill="#5a3b26"/>
<text x="1197" y="298" font-size="10" font-weight="800" fill="#0e6378" text-anchor="middle">ZC</text>
<g class="bob">
<rect x="999" y="284" width="22" height="22" fill="#1b2a40"/>
<path d="M918 420C918 326 946 300 1010 298C1074 300 1102 326 1102 420Z" fill="#14233a"/>
<path d="M918 420C918 326 946 300 1010 298C1074 300 1102 326 1102 420" fill="none" stroke="#38e8ff" stroke-opacity=".35" stroke-width="2"/>
<path d="M976 308q34 26 68 0" fill="none" stroke="#0e1a2c" stroke-width="5"/>
<circle cx="1010" cy="262" r="31" fill="#0b111d"/>
<path d="M979 262a31 31 0 0 1 62 0" fill="none" stroke="#38e8ff" stroke-opacity=".45" stroke-width="2"/>
<path d="M974 266a36 38 0 0 1 72 0" fill="none" stroke="#2a3b55" stroke-width="6"/>
<rect x="968" y="258" width="12" height="22" rx="5" fill="#2a3b55"/><rect x="1040" y="258" width="12" height="22" rx="5" fill="#2a3b55"/>
<circle class="pulse" cx="1046" cy="269" r="2" fill="#7dffb2"/></g></g><text x="1235" y="80" font-size="11" letter-spacing="2" fill="#5d7689" text-anchor="end">LOCAL</text>
<text x="1235" y="100" font-size="18" font-weight="700" fill="#ffb547" text-anchor="end">06<tspan class="blink">:</tspan>00</text>
<circle class="spin" cx="170" cy="240" r="100" fill="none" stroke="#0e6378" stroke-width="1.5" stroke-dasharray="3 9"/>
<g class="spin rev"><circle cx="170" cy="240" r="112" fill="none" stroke="#16243a"/><circle cx="282" cy="240" r="4" fill="#ffb547"/></g>
<polygon points="237.5,279.0 170.0,318.0 102.5,279.0 102.5,201.0 170.0,162.0 237.5,201.0" fill="#38e8ff" fill-opacity=".05"/>
<polygon class="draw" points="237.5,279.0 170.0,318.0 102.5,279.0 102.5,201.0 170.0,162.0 237.5,201.0" fill="none" stroke="url(#zcg)" stroke-width="3"/>
<g font-size="58" font-weight="800" text-anchor="middle">
<text class="jit" x="170" y="260" fill="#38e8ff" opacity=".55">ZC</text>
<text class="jit b" x="170" y="260" fill="#ffb547" opacity=".45">ZC</text>
<text class="in" style="animation-delay:0.90s" x="170" y="260" fill="url(#zcg)">ZC</text></g><text class="in" style="animation-delay:0.50s" x="300.0" y="222" font-size="48" font-weight="800" fill="url(#sheen)">Z</text><text class="in" style="animation-delay:0.58s" x="328.8" y="222" font-size="48" font-weight="800" fill="url(#sheen)">O</text><text class="in" style="animation-delay:0.66s" x="357.6" y="222" font-size="48" font-weight="800" fill="url(#sheen)">O</text><text class="in" style="animation-delay:0.74s" x="386.4" y="222" font-size="48" font-weight="800" fill="url(#sheen)">L</text><text class="in" style="animation-delay:0.82s" x="415.2" y="222" font-size="48" font-weight="800" fill="url(#sheen)">C</text><text class="in" style="animation-delay:0.90s" x="444.0" y="222" font-size="48" font-weight="800" fill="url(#sheen)">O</text><text class="in" style="animation-delay:0.98s" x="472.8" y="222" font-size="48" font-weight="800" fill="url(#sheen)">D</text><text class="in" style="animation-delay:1.06s" x="501.6" y="222" font-size="48" font-weight="800" fill="url(#sheen)">E</text><text class="in" style="animation-delay:1.14s" x="530.4" y="222" font-size="48" font-weight="800" fill="url(#sheen)">R</text>
<text class="in" style="animation-delay:1.30s" x="302" y="258" font-size="13" letter-spacing="4.5" fill="#ffb547">GOOD MORNING, WORLD</text>
<text class="type" x="302" y="296" font-size="15" fill="#cfe6f0"><tspan class="em">☕</tspan> coffee → compile → ship</text>
<text class="in" style="animation-delay:3.60s" x="302" y="330" font-size="11" letter-spacing="2" fill="#5d7689">SINCE 2005 · AI-NATIVE SINCE 2023</text>
</svg>
